<?xml version="1.0" encoding="UTF-8" standalone="no"?>
<svg
	width="100%"
	height="100%"
	viewBox="0 0 1425 1544"
	version="1.1"
	xmlns="http://www.w3.org/2000/svg"
	xml:space="preserve"
	style="fill-rule:evenodd;clip-rule:evenodd;stroke-linejoin:round;stroke-miterlimit:2;"
>
	<defs>
		<linearGradient
			id="_Linear1"
			x1="0"
			y1="0"
			x2="1"
			y2="0"
			gradientUnits="userSpaceOnUse"
			gradientTransform="matrix(1042.020676,1180.494883,-1180.494883,1042.020676,210.661678,171.064152)"
		>
			<stop offset="0" style="stop-color:#7163df;stop-opacity:1" />
			<stop offset="0.33" style="stop-color:#9f57a7;stop-opacity:1" />
			<stop offset="0.69" style="stop-color:#b95186;stop-opacity:1" />
			<stop offset="1" style="stop-color:#de4859;stop-opacity:1" />
		</linearGradient>

		<pattern id="GridPattern" width="40" height="40" patternUnits="userSpaceOnUse">
			<path d="M40,0L0,0L0,40" fill="none" stroke="#ffffff" stroke-opacity="1" stroke-width="1.2" />
		</pattern>

		<clipPath id="InnerRoundedClip">
			<path d="M1374.825,375.742l0,792.861c0,181.364 -147.245,328.609 -328.609,328.609l-657.219,0c-181.364,0 -328.609,-147.245 -328.609,-328.609l0,-792.861c0,-181.364 147.245,-328.609 328.609,-328.609l657.219,0c181.364,0 328.609,147.245 328.609,328.609Z" />
		</clipPath>
	</defs>

	<rect id="Artboard1" x="0" y="0" width="1424.243" height="1543.738" style="fill:none;" />

	<path d="M1418.424,362.017l0,820.312c0,193.396 -157.013,350.409 -350.409,350.409l-700.818,0c-193.396,0 -350.409,-157.013 -350.409,-350.409l0,-820.312c0,-193.396 157.013,-350.409 350.409,-350.409l700.818,0c193.396,0 350.409,157.013 350.409,350.409Z" />

	<path d="M1374.825,375.742l0,792.861c0,181.364 -147.245,328.609 -328.609,328.609l-657.219,0c-181.364,0 -328.609,-147.245 -328.609,-328.609l0,-792.861c0,-181.364 147.245,-328.609 328.609,-328.609l657.219,0c181.364,0 328.609,147.245 328.609,328.609Z" style="fill:url(#_Linear1);" />

	<rect
		x="60.388"
		y="47.133"
		width="1314.437"
		height="1450.079"
		clip-path="url(#InnerRoundedClip)"
		fill="url(#GridPattern)"
		opacity="0.12"
	/>

	<rect x="188.992" y="1053.479" width="322.958" height="78.048" style="fill:#fff;" />

	<g>
		<path d="M656.751,903.776c0,72.833 -1.113,226.879 -1.372,227.417c-0.361,0.751 -169.191,0 -243.882,0c-14.633,0 -100.065,-15.142 -144.873,-12.645c-9.811,0.547 -17.674,1.939 -22.42,4.521c-1.975,1.074 -35.146,4.885 -55.212,0.426l0,-156.991c15.235,5.202 116.135,54.139 138.617,60.457c22.482,6.317 45.428,9.476 68.838,9.476c34.187,0 61.406,-3.902 81.658,-11.705c20.252,-7.804 35.209,-18.951 44.87,-33.444c10.033,-14.864 16.443,-33.072 19.23,-54.625c2.787,-21.553 4.18,-46.45 4.18,-74.691l0,-484.377l-382.284,0.294c27.012,-123.804 100.8,-209.337 231.873,-248.001l260.776,184.471l0,589.417Z" style="fill:#fff;fill-rule:nonzero;" />
	</g>

	<path d="M1324.291,771.18l-606.538,360.013l-0.147,-781.685l606.685,421.672Z" style="fill:#fff;" />

	<g transform="matrix(266.666667,0,0,266.666667,1255.658883,1365.070846)"></g>

	<text x="188.992px" y="1365.071px" style="font-family:'Hooge0553', 'hooge 05_53';font-size:266.667px;fill:#fff;">STUDIO</text>
</svg>
